# Created by Metasequoia

v -35.395100 -3.166100 -2.357800
v -35.395100 9.390300 -2.357800
v -35.395100 -3.166100 2.357800
v -35.395100 9.390300 2.357800
v -35.395100 3.654000 -3.638800
v -35.395100 3.654000 3.638800
v -293.527100 -29.939699 -2.357800
v -296.226013 -17.417900 -2.357800
v -293.527100 -29.939699 2.357800
v -296.226013 -17.417900 2.357800
v -294.876495 -23.678801 -3.638800
v -294.876495 -23.678801 3.638800
v -225.513504 -17.147699 -2.357800
v -227.510300 -4.494900 -2.357800
v -225.513504 -17.147699 2.357800
v -227.510300 -4.494900 2.357800
v -226.511795 -10.821400 -3.638800
v -226.511795 -10.821400 3.638800
v -169.668503 -9.703200 -2.357800
v -171.056000 3.030700 -2.357800
v -169.668503 -9.703200 2.357800
v -171.056000 3.030700 2.357800
v -170.362198 -3.336300 -3.638800
v -170.362198 -3.336300 3.638800
v -109.643997 -4.716800 -2.357800
v -110.376701 8.071600 -2.357800
v -109.643997 -4.716800 2.357800
v -110.376701 8.071600 2.357800
v -110.010300 1.677400 -3.638800
v -110.010300 1.677400 3.638800
v -293.527100 -29.939699 -2.357800
v -296.226013 -17.417900 -2.357800
v -293.527100 -29.939699 2.357800
v -296.226013 -17.417900 2.357800
v -294.876495 -23.678801 -3.638800
v -294.876495 -23.678801 3.638800
v -35.451401 -3.580700 -3.002900
v -35.492500 10.802100 -3.002900
v -35.451401 -3.580700 3.002900
v -35.492500 10.802100 3.002900
v -35.143002 3.610700 -4.606400
v -35.143002 3.610700 4.606400
v -293.916687 -31.360500 -3.220100
v -297.122711 -16.274300 -3.220100
v -293.916687 -31.360500 3.220100
v -297.122711 -16.274300 3.220100
v -295.864502 -23.891701 -4.939600
v -295.864502 -23.891701 4.939600
v -225.326508 -18.312901 -3.325500
v -227.697296 -3.329800 -3.325500
v -225.326508 -18.312901 3.325500
v -227.697296 -3.329800 3.325500
v -226.511795 -10.821400 -5.574100
v -226.511795 -10.821400 5.574100
v -169.541702 -10.876500 -3.325500
v -171.182907 4.204000 -3.325500
v -169.541702 -10.876500 3.325500
v -171.182907 4.204000 3.325500
v -170.362198 -3.336300 -5.574100
v -170.362198 -3.336300 5.574100
v -109.579697 -5.895000 -3.325500
v -110.441002 9.249800 -3.325500
v -109.579697 -5.895000 3.325500
v -110.441002 9.249800 3.325500
v -110.010300 1.677400 -5.574100
v -110.010300 1.677400 5.574100
v 46.026699 48.864899 11.466400
v 58.441502 40.936001 11.466400
v 46.026699 48.864899 6.043400
v 58.441502 40.936001 6.043400
v 52.234100 44.900398 12.939500
v 52.234100 44.900398 4.570300
v -59.530998 -58.415699 11.466400
v -48.225800 -67.467796 11.466400
v -59.530998 -58.415699 6.043400
v -48.225800 -67.467796 6.043400
v -53.878399 -62.941700 12.939500
v -53.878399 -62.941700 4.570300
v -26.192801 -33.546501 11.466400
v -14.544500 -42.341202 11.466400
v -26.192801 -33.546501 6.043400
v -14.544500 -42.341202 6.043400
v -20.368799 -37.943699 12.939500
v -20.368799 -37.943699 4.570300
v -1.783900 -11.233400 11.466400
v 10.130600 -19.784500 11.466400
v -1.783900 -11.233400 6.043400
v 10.130600 -19.784500 6.043400
v 4.173300 -15.508900 12.939500
v 4.173300 -15.508900 4.570300
v 21.529301 14.616100 11.466400
v 33.698299 6.347000 11.466400
v 21.529301 14.616100 6.043400
v 33.698299 6.347000 6.043400
v 27.613899 10.481500 12.939500
v 27.613899 10.481500 4.570300
v -59.530998 -58.415699 11.466400
v -48.225800 -67.467796 11.466400
v -59.530998 -58.415699 6.043400
v -48.225800 -67.467796 6.043400
v -53.878399 -62.941700 12.939500
v -53.878399 -62.941700 4.570300
# 102 vertices

vt 0.99227 0.44572
vt 0.00663 0.44572
vt 0.00663 0.16198
vt 0.99227 0.16198
vt 0.99227 0.74545
vt 0.00663 0.74545
vt 0.32400 0.31757
vt 0.32400 0.07736
vt 0.15793 0.07736
vt 0.15793 0.31757
vt 0.78501 0.31757
vt 0.95036 0.31757
vt 0.95036 0.07736
vt 0.78501 0.07736
vt 0.03624 0.07736
vt 0.03627 0.31757
vt 0.49011 0.31757
vt 0.49011 0.07736
vt 0.61911 0.31757
vt 0.61911 0.07736
vt 0.32400 0.51553
vt 0.15793 0.51553
vt 0.95036 0.51553
vt 0.78501 0.51553
vt 0.03630 0.51553
vt 0.49011 0.51553
vt 0.61911 0.51553
vt 0.32400 0.72675
vt 0.15793 0.72675
vt 0.95036 0.72675
vt 0.78501 0.72675
vt 0.03632 0.72675
vt 0.49011 0.72675
vt 0.61911 0.72675
vt 0.24717 0.03347
vt 0.24717 0.05904
vt 0.41312 0.05454
vt 0.41312 0.03797
vt 0.08122 0.03797
vt 0.08122 0.05454
vt 0.78501 0.98619
vt 0.95036 0.98619
vt 0.03635 0.98619
vt 0.15793 0.98619
vt 0.61911 0.98619
vt 0.49011 0.98619
vt 0.32400 0.98619
vt 0.72453 0.05854
vt 0.72453 0.03297
vt 0.55477 0.03747
vt 0.55477 0.05404
vt 0.89429 0.05404
vt 0.89429 0.03747
vt 0.99494 0.46167
vt 0.00409 0.46167
vt 0.00409 0.19303
vt 0.99494 0.19303
vt 0.99494 0.74545
vt 0.00409 0.74545
# 59 texture vertices

vn 0.02088 -0.99978 0.00000
vn -0.01758 0.99985 0.00000
vn 0.00449 -0.19041 0.98170
vn -0.00461 0.20711 0.97831
vn 0.00111 -0.05530 -0.99847
vn -0.00045 0.01702 0.99986
vn 0.03626 -0.19282 -0.98056
vn -0.03626 0.19281 -0.98057
vn 0.03626 -0.19281 0.98057
vn -0.18482 0.98277 0.00000
vn -0.01230 0.06540 -0.99778
vn 0.01230 -0.06541 0.99778
vn 0.02937 -0.19392 -0.98058
vn -0.03282 0.19337 -0.98058
vn 0.03282 -0.19337 0.98058
vn -0.16731 0.98590 0.00000
vn 0.00176 0.00028 -1.00000
vn -0.00176 -0.00028 1.00000
vn 0.01947 -0.19517 -0.98058
vn -0.02270 0.19481 -0.98058
vn 0.02270 -0.19482 0.98058
vn -0.11572 0.99328 0.00000
vn 0.00165 0.00018 -1.00000
vn -0.00165 -0.00018 1.00000
vn 0.00843 -0.19209 -0.98134
vn -0.01198 0.19576 -0.98058
vn 0.01219 -0.19575 0.98058
vn -0.05021 0.99874 0.00000
vn 0.00208 0.00383 -0.99999
vn -0.00240 0.03334 0.99944
vn -0.97755 -0.21069 0.00000
vn -0.97755 -0.21071 0.00000
vn -0.97755 -0.21069 0.00000
vn -0.97755 -0.21071 -0.00000
vn -0.97755 -0.21070 0.00000
vn -0.97755 -0.21070 0.00000
vn 0.03120 -0.99951 0.00000
vn -0.02071 0.99979 0.00000
vn 0.01565 -0.25129 0.96778
vn 0.00261 0.25141 0.96788
vn 0.01293 -0.00020 -0.99992
vn 0.01293 -0.00020 0.99992
vn 0.04180 -0.24811 -0.96783
vn -0.05126 0.24591 -0.96794
vn 0.04180 -0.24811 0.96783
vn -0.18329 0.98306 0.00000
vn -0.00875 -0.00211 -0.99996
vn -0.00875 -0.00211 0.99996
vn 0.04228 -0.28108 -0.95875
vn -0.04555 0.28056 -0.95875
vn 0.04464 -0.28071 0.95875
vn -0.16629 0.98608 0.00000
vn -0.00836 0.04109 -0.99912
vn 0.00277 -0.04240 0.99910
vn 0.02822 -0.28285 -0.95875
vn -0.03289 0.28233 -0.95875
vn 0.03289 -0.28234 0.95875
vn -0.11572 0.99328 0.00000
vn 0.00244 0.00026 -1.00000
vn -0.00244 -0.00027 1.00000
vn 0.01829 -0.28366 -0.95875
vn -0.01628 0.28377 -0.95875
vn 0.02004 -0.28355 0.95875
vn -0.05177 0.99866 0.00000
vn 0.00889 -0.04194 -0.99908
vn 0.00192 0.04200 0.99912
vn -0.81335 0.58177 0.00000
vn 0.81332 -0.58181 0.00000
vn -0.15973 0.11426 -0.98053
vn 0.15973 -0.11426 -0.98052
vn -0.05418 0.03876 0.99778
vn 0.00000 -0.00000 -1.00000
vn -0.12301 0.16490 0.97861
vn 0.12301 -0.16489 0.97861
vn -0.12300 0.16489 -0.97861
vn 0.59795 -0.80153 0.00000
vn 0.04180 -0.05603 0.99755
vn -0.04180 0.05603 -0.99755
vn -0.13147 0.15394 0.97929
vn 0.12724 -0.15941 0.97898
vn -0.12725 0.15942 -0.97898
vn 0.62423 -0.78124 0.00000
vn 0.00216 0.00280 0.99999
vn -0.00216 -0.00280 -0.99999
vn -0.14333 0.13795 0.98001
vn 0.13951 -0.14319 0.97981
vn -0.13951 0.14320 -0.97981
vn 0.69806 -0.71604 0.00000
vn 0.00195 0.00268 0.99999
vn -0.00195 -0.00268 -0.99999
vn -0.15554 0.12041 0.98046
vn 0.15135 -0.12656 0.98034
vn -0.15135 0.12656 -0.98035
vn 0.77920 -0.62677 0.00000
vn 0.00214 0.00313 0.99999
vn 0.02143 -0.01933 -0.99958
vn -0.62503 -0.78060 -0.00000
vn -0.62503 -0.78060 0.00000
vn -0.62503 -0.78060 0.00000
vn -0.62503 -0.78060 0.00000
vn -0.62503 -0.78060 0.00000
vn -0.62503 -0.78060 0.00000
vn 0.16732 -0.98590 0.00000
vn 0.18484 -0.98277 0.00000
vn 0.18484 -0.98277 0.00000
vn 0.14975 -0.98872 0.00000
vn -0.18482 0.98277 0.00000
vn -0.14975 0.98872 0.00000
vn -0.03626 0.19282 0.98056
vn -0.02937 0.19391 0.98058
vn 0.11572 -0.99328 0.00000
vn 0.09926 -0.99506 0.00000
vn -0.09927 0.99506 0.00000
vn -0.01947 0.19516 0.98058
vn 0.06218 -0.99807 0.00000
vn 0.04153 -0.99914 0.00000
vn -0.05021 0.99874 0.00000
vn -0.00985 0.19588 0.98058
vn 0.02088 -0.99978 0.00000
vn -0.00461 0.20711 -0.97831
vn 0.00386 -0.18460 -0.98281
vn 1.00000 0.00000 0.00000
vn 0.16869 -0.98567 0.00000
vn 0.18687 -0.98238 0.00000
vn 0.18687 -0.98238 0.00000
vn 0.15043 -0.98862 0.00000
vn -0.14923 0.98880 0.00000
vn -0.05126 0.24591 0.96794
vn -0.04289 0.28098 0.95875
vn 0.11572 -0.99328 0.00000
vn 0.09927 -0.99506 0.00000
vn -0.09926 0.99506 0.00000
vn -0.02822 0.28284 0.95875
vn 0.06562 -0.99784 0.00000
vn 0.04842 -0.99883 0.00000
vn -0.05177 0.99866 0.00000
vn -0.01265 0.28398 0.95875
vn -0.97487 -0.22276 0.00000
vn -0.98121 -0.19294 0.00000
vn -0.96764 -0.25235 0.00000
vn -0.98663 -0.16297 0.00000
vn 0.03120 -0.99951 0.00000
vn -0.02071 0.99979 0.00000
vn 0.00261 0.25141 -0.96788
vn 0.01565 -0.25129 -0.96778
vn 0.99984 0.01810 0.00000
vn 0.99992 -0.01239 0.00000
vn 0.99882 0.04854 0.00000
vn 0.99882 0.04854 0.00000
vn 0.99908 -0.04285 0.00000
vn 0.99908 -0.04285 0.00000
vn -0.62421 0.78126 0.00000
vn -0.59793 0.80155 0.00000
vn -0.64983 0.76008 0.00000
vn 0.64984 -0.76007 0.00000
vn 0.12301 -0.16489 -0.97861
vn 0.13147 -0.15393 -0.97930
vn -0.69806 0.71604 0.00000
vn -0.72071 0.69323 0.00000
vn 0.72071 -0.69323 0.00000
vn 0.14333 -0.13795 -0.98001
vn -0.76727 0.64132 0.00000
vn -0.79089 0.61196 0.00000
vn 0.15345 -0.12349 -0.98041
vn 0.15973 -0.11426 0.98052
vn -0.15973 0.11425 0.98053
vn 0.53825 0.84278 0.00000
vn 0.53826 0.84278 0.00000
vn 0.53825 0.84279 0.00000
vn 0.53825 0.84279 0.00000
vn 0.53826 0.84278 0.00000
vn 0.53826 0.84278 0.00000
# 172 normal vertices

g sheath
f 7/3/7 11/2/11 17/1/17
f 13/4/13 7/3/7 17/1/17
f 12/2/12 9/3/9 15/4/15
f 18/1/18 12/2/12 15/4/15
f 9/3/105 7/3/104 13/4/103
f 15/4/106 9/3/105 13/4/103
f 11/2/11 8/6/8 14/5/14
f 17/1/17 11/2/11 14/5/14
f 8/6/107 10/6/10 16/5/16
f 14/5/108 8/6/107 16/5/16
f 10/6/109 12/2/12 18/1/18
f 16/5/110 10/6/109 18/1/18
f 13/4/13 17/1/17 23/1/23
f 19/4/19 13/4/13 23/1/23
f 18/1/18 15/4/15 21/4/21
f 24/1/24 18/1/18 21/4/21
f 15/4/106 13/4/103 19/4/111
f 21/4/112 15/4/106 19/4/111
f 17/1/17 14/5/14 20/5/20
f 23/1/23 17/1/17 20/5/20
f 14/5/108 16/5/16 22/5/22
f 20/5/113 14/5/108 22/5/22
f 16/5/110 18/1/18 24/1/24
f 22/5/114 16/5/110 24/1/24
f 19/4/19 23/1/23 29/1/29
f 25/4/25 19/4/19 29/1/29
f 24/1/24 21/4/21 27/4/27
f 30/1/30 24/1/24 27/4/27
f 21/4/112 19/4/111 25/4/115
f 27/4/116 21/4/112 25/4/115
f 23/1/23 20/5/20 26/5/26
f 29/1/29 23/1/23 26/5/26
f 20/5/113 22/5/22 28/5/28
f 26/5/117 20/5/113 28/5/28
f 22/5/114 24/1/24 30/1/30
f 28/5/118 22/5/114 30/1/30
f 33/3/33 36/2/36 35/2/35
f 31/3/31 33/3/33 35/2/35
f 36/2/36 34/6/34 32/6/32
f 35/2/35 36/2/36 32/6/32
f 3/4/3 6/1/6 30/1/30
f 27/4/27 3/4/3 30/1/30
f 1/4/1 3/4/119 27/4/116
f 25/4/115 1/4/1 27/4/116
f 4/5/4 28/5/118 30/1/30
f 6/1/6 4/5/4 30/1/30
f 2/5/2 26/5/117 28/5/28
f 4/5/2 2/5/2 28/5/28
f 2/5/120 5/1/5 29/1/29
f 26/5/26 2/5/120 29/1/29
f 5/1/5 1/4/121 25/4/25
f 29/1/29 5/1/5 25/4/25
f 4/5/122 6/1/122 5/1/122
f 2/5/122 4/5/122 5/1/122
f 6/1/122 3/4/122 1/4/122
f 5/1/122 6/1/122 1/4/122
g effect
f 43/9/43 47/8/47 53/7/53
f 49/10/49 43/9/43 53/7/53
f 45/13/45 51/12/51 54/11/54
f 48/14/48 45/13/45 54/11/54
f 45/15/125 43/9/124 49/10/123
f 51/16/126 45/15/125 49/10/123
f 44/18/44 50/17/50 53/7/53
f 47/8/47 44/18/44 53/7/53
f 44/18/46 46/20/46 52/19/52
f 50/17/127 44/18/46 52/19/52
f 46/20/128 48/14/48 54/11/54
f 52/19/129 46/20/128 54/11/54
f 49/10/49 53/7/53 59/21/59
f 55/22/55 49/10/49 59/21/59
f 54/11/54 51/12/51 57/23/57
f 60/24/60 54/11/54 57/23/57
f 51/16/126 49/10/123 55/22/130
f 57/25/131 51/16/126 55/22/130
f 53/7/53 50/17/50 56/26/56
f 59/21/59 53/7/53 56/26/56
f 50/17/127 52/19/52 58/27/58
f 56/26/132 50/17/127 58/27/58
f 52/19/129 54/11/54 60/24/60
f 58/27/133 52/19/129 60/24/60
f 55/22/55 59/21/59 65/28/65
f 61/29/61 55/22/55 65/28/65
f 60/24/60 57/23/57 63/30/63
f 66/31/66 60/24/60 63/30/63
f 57/25/131 55/22/130 61/29/134
f 63/32/135 57/25/131 61/29/134
f 59/21/59 56/26/56 62/33/62
f 65/28/65 59/21/59 62/33/62
f 56/26/132 58/27/58 64/34/64
f 62/33/136 56/26/132 64/34/64
f 58/27/133 60/24/60 66/31/66
f 64/34/137 58/27/133 66/31/66
f 45/37/140 48/36/139 47/35/138
f 43/38/140 45/37/140 47/35/138
f 48/36/139 46/40/141 44/39/141
f 47/35/138 48/36/139 44/39/141
f 39/42/39 42/41/42 66/31/66
f 63/30/63 39/42/39 66/31/66
f 37/44/37 39/43/142 63/32/135
f 61/29/134 37/44/37 63/32/135
f 40/45/40 64/34/137 66/31/66
f 42/41/42 40/45/40 66/31/66
f 38/46/38 62/33/136 64/34/64
f 40/45/143 38/46/38 64/34/64
f 38/46/144 41/47/41 65/28/65
f 62/33/62 38/46/144 65/28/65
f 37/44/145 61/29/61 65/28/65
f 41/47/41 37/44/145 65/28/65
f 40/50/148 42/49/147 41/48/146
f 38/51/149 40/50/148 41/48/146
f 42/49/147 39/53/151 37/52/150
f 41/48/146 42/49/147 37/52/150
g item_blade
f 73/56/73 77/55/77 83/54/83
f 79/57/79 73/56/73 83/54/83
f 78/55/78 75/56/75 81/57/81
f 84/54/84 78/55/78 81/57/81
f 75/56/153 73/56/153 79/57/152
f 81/57/154 75/56/153 79/57/152
f 77/55/77 74/59/74 80/58/80
f 83/54/83 77/55/77 80/58/80
f 74/59/76 76/59/76 82/58/82
f 80/58/155 74/59/76 82/58/82
f 76/59/156 78/55/78 84/54/84
f 82/58/157 76/59/156 84/54/84
f 79/57/79 83/54/83 89/54/89
f 85/57/85 79/57/79 89/54/89
f 84/54/84 81/57/81 87/57/87
f 90/54/90 84/54/84 87/57/87
f 81/57/154 79/57/152 85/57/158
f 87/57/159 81/57/154 85/57/158
f 83/54/83 80/58/80 86/58/86
f 89/54/89 83/54/83 86/58/86
f 80/58/155 82/58/82 88/58/88
f 86/58/160 80/58/155 88/58/88
f 82/58/157 84/54/84 90/54/90
f 88/58/161 82/58/157 90/54/90
f 85/57/85 89/54/89 95/54/95
f 91/57/91 85/57/85 95/54/95
f 90/54/90 87/57/87 93/57/93
f 96/54/96 90/54/90 93/57/93
f 87/57/159 85/57/158 91/57/162
f 93/57/163 87/57/159 91/57/162
f 89/54/89 86/58/86 92/58/92
f 95/54/95 89/54/89 92/58/92
f 86/58/160 88/58/88 94/58/94
f 92/58/94 86/58/160 94/58/94
f 88/58/161 90/54/90 96/54/96
f 94/58/164 88/58/161 96/54/96
f 99/56/99 102/55/102 101/55/101
f 97/56/97 99/56/99 101/55/101
f 102/55/102 100/59/100 98/59/98
f 101/55/101 102/55/102 98/59/98
f 69/57/69 72/54/72 96/54/96
f 93/57/93 69/57/69 96/54/96
f 67/57/67 69/57/67 93/57/163
f 91/57/162 67/57/67 93/57/163
f 70/58/70 94/58/164 96/54/96
f 72/54/72 70/58/70 96/54/96
f 68/58/68 92/58/94 94/58/94
f 70/58/68 68/58/68 94/58/94
f 68/58/165 71/54/71 95/54/95
f 92/58/92 68/58/165 95/54/95
f 71/54/71 67/57/166 91/57/91
f 95/54/95 71/54/71 91/57/91
f 70/58/169 72/54/168 71/54/167
f 68/58/170 70/58/169 71/54/167
f 72/54/168 69/57/172 67/57/171
f 71/54/167 72/54/168 67/57/171
# 168 elements

